<?xml version="1.0" standalone="no"?>
<!DOCTYPE svg PUBLIC "-//W3C//DTD SVG 20010904//EN"
 "http://www.w3.org/TR/2001/REC-SVG-20010904/DTD/svg10.dtd">
<svg version="1.0" xmlns="http://www.w3.org/2000/svg"
 width="300.000000pt" height="300.000000pt" viewBox="0 0 300.000000 300.000000"
 preserveAspectRatio="xMidYMid meet">
<metadata>
Created by potrace 1.11, written by Peter Selinger 2001-2013
</metadata>
<g transform="translate(0.000000,300.000000) scale(0.100000,-0.100000)"
fill="#000000" stroke="none">
<path d="M1374 2893 c5 -10 -3 -13 -31 -14 -86 -2 -148 -10 -153 -20 -4 -5
-18 -11 -31 -12 -13 -2 -44 -12 -69 -23 -25 -12 -61 -27 -80 -34 -19 -8 -41
-20 -48 -27 -7 -7 -20 -13 -29 -13 -9 0 -13 -6 -9 -15 4 -10 -6 -17 -32 -24
-149 -40 -153 -42 -161 -64 -6 -14 -4 -27 3 -36 8 -11 8 -15 -1 -18 -24 -8
-63 -45 -57 -54 3 -5 10 -7 15 -3 5 3 7 9 4 14 -3 4 4 6 15 3 19 -5 19 -7 -9
-24 -30 -18 -44 -37 -18 -24 6 4 3 -1 -7 -9 -11 -9 -23 -16 -28 -16 -18 0 -6
-21 17 -30 14 -5 25 -12 25 -16 0 -3 -7 -4 -15 0 -8 3 -15 1 -15 -4 0 -10 -58
-50 -72 -50 -5 0 -8 5 -8 10 0 6 7 10 15 10 8 0 15 5 15 11 0 5 -6 7 -12 3 -9
-6 -9 -3 0 9 8 9 11 21 8 26 -4 6 3 15 14 21 11 6 18 15 15 20 -3 4 1 10 7 13
9 3 10 8 3 16 -8 8 -21 5 -48 -9 -20 -11 -44 -20 -52 -20 -8 0 -15 -5 -15 -11
0 -5 -4 -8 -9 -5 -11 7 -32 -17 -35 -41 -2 -10 -9 -18 -17 -18 -7 0 -15 -8
-17 -17 -2 -11 3 -18 12 -18 25 0 18 -14 -14 -28 -26 -12 -28 -16 -16 -28 19
-18 30 -18 22 1 -4 12 1 15 24 13 17 -1 30 -5 30 -9 0 -12 -59 -29 -77 -22
-11 4 -14 2 -11 -8 3 -8 -4 -25 -16 -38 -15 -17 -18 -25 -8 -28 10 -4 9 -8 -4
-18 -17 -12 -16 -13 3 -19 12 -4 24 -13 27 -21 3 -8 12 -15 20 -15 15 0 16
-35 1 -72 -5 -11 -3 -18 5 -18 7 0 10 -8 7 -20 -4 -15 0 -20 16 -20 18 0 19
-2 7 -10 -12 -8 -12 -10 2 -15 14 -6 15 -11 6 -31 -6 -13 -15 -21 -20 -17 -6
3 -2 -6 7 -21 16 -24 16 -27 0 -42 -13 -13 -14 -19 -4 -25 10 -6 10 -11 -1
-23 -15 -19 -10 -26 17 -30 10 -2 19 -13 21 -26 3 -16 0 -20 -10 -15 -7 4 5
-9 26 -29 22 -20 46 -36 53 -36 8 0 30 -12 49 -26 36 -28 80 -36 102 -20 10 7
22 0 43 -26 23 -27 35 -34 54 -30 25 4 35 35 15 47 -5 3 -10 15 -10 26 0 11
-4 17 -10 14 -6 -3 -7 1 -4 9 6 16 -21 50 -33 43 -5 -3 -15 2 -23 11 -13 14
-12 15 3 9 14 -5 17 0 17 30 0 20 -8 45 -17 56 -10 11 -12 17 -5 13 8 -5 12 0
12 13 0 12 -4 21 -9 21 -10 0 -8 32 4 69 5 16 4 21 -4 17 -6 -4 -20 -9 -32
-11 -18 -4 -19 -2 -7 13 7 9 18 20 23 24 6 5 5 8 -3 8 -8 0 -10 8 -6 24 3 15
1 25 -9 29 -8 3 -19 19 -25 37 -9 25 -9 32 3 37 8 3 13 8 10 12 -2 4 -6 21 -9
37 -8 43 51 93 146 122 40 13 100 36 133 52 103 49 145 62 109 35 -11 -9 9 -5
49 10 38 14 73 23 78 20 5 -4 9 -1 9 5 0 6 4 8 10 5 11 -7 110 35 110 47 0 12
135 58 158 53 12 -2 44 5 69 16 26 11 52 18 59 15 7 -3 14 -1 16 4 2 5 25 11
51 14 36 5 61 1 100 -16 70 -29 204 -116 253 -164 55 -54 114 -134 114 -154 0
-10 7 -34 15 -53 8 -20 15 -39 15 -42 0 -3 -24 -5 -52 -5 -81 2 -178 -41 -203
-90 -8 -16 -23 -33 -32 -39 -10 -5 -14 -13 -10 -17 4 -5 16 -4 25 2 22 13 62
6 41 -7 -11 -7 -11 -9 3 -9 9 0 18 4 20 10 2 5 19 12 38 14 19 2 38 4 43 5 4
0 7 5 7 11 0 5 -8 7 -17 3 -13 -4 -15 -3 -8 5 15 16 125 41 131 30 4 -6 15 -8
25 -5 11 3 17 1 13 -4 -3 -5 0 -9 5 -9 16 0 13 32 -4 57 -12 16 -13 28 -5 48
7 19 7 40 -1 68 -6 23 -12 47 -13 52 -4 23 -28 55 -37 50 -5 -4 -10 1 -10 9
-4 53 -17 66 -92 90 -11 4 -15 11 -11 18 5 7 9 36 11 64 2 41 -1 57 -18 75
-11 13 -18 19 -15 12 4 -6 2 -14 -2 -17 -5 -3 -36 20 -69 52 -77 73 -102 92
-128 93 -40 3 -50 5 -70 14 -11 5 -29 18 -40 30 -12 12 -27 19 -34 17 -7 -2
-27 6 -43 18 -27 20 -35 21 -66 12 -26 -8 -32 -8 -24 0 15 15 -37 40 -55 26
-7 -5 -14 -5 -17 1 -4 6 -13 8 -20 5 -8 -3 -17 0 -21 6 -5 8 -13 6 -26 -6 -18
-16 -19 -16 -19 3 0 11 -8 27 -17 34 -11 10 -14 10 -9 2z m456 -183 c0 -5 -4
-10 -9 -10 -6 0 -13 5 -16 10 -3 6 1 10 9 10 9 0 16 -4 16 -10z m35 -41 c10
-31 0 -33 -19 -4 -14 21 -14 25 -2 25 8 0 18 -9 21 -21z m-1225 -315 c-13 -29
-16 -31 -27 -16 -18 22 -16 43 2 36 8 -4 15 -2 15 3 0 5 6 10 13 10 10 0 9 -8
-3 -33z m88 -56 c-5 -13 -38 -20 -38 -8 0 8 17 18 33 19 5 1 7 -4 5 -11z m-31
-50 c-3 -8 -6 -5 -6 6 -1 11 2 17 5 13 3 -3 4 -12 1 -19z m-137 -266 c0 -4 -9
-13 -19 -19 -16 -10 -18 -9 -14 8 5 18 33 28 33 11z m115 -32 c-3 -5 -11 -10
-16 -10 -6 0 -7 5 -4 10 3 6 11 10 16 10 6 0 7 -4 4 -10z m-113 -40 c29 0 16
-23 -14 -24 -18 -1 -28 4 -32 17 -3 13 0 17 11 13 8 -3 24 -6 35 -6z m93 -30
c-3 -5 -12 -10 -18 -10 -7 0 -6 4 3 10 19 12 23 12 15 0z m81 -30 c0 -11 -6
-22 -12 -24 -20 -8 -9 35 11 44 1 0 1 -9 1 -20z m-61 0 c5 8 11 8 21 -1 7 -6
12 -14 10 -18 -3 -4 -1 -13 5 -21 7 -13 9 -13 9 0 1 12 4 11 15 -4 9 -12 12
-32 8 -60 -6 -44 -13 -58 -20 -38 -3 6 -9 12 -15 12 -6 0 -4 -8 5 -18 15 -17
15 -18 -5 -19 -12 -1 -25 -8 -30 -15 -5 -9 -8 -5 -8 12 0 43 -3 59 -11 54 -12
-7 -21 15 -14 34 5 14 7 14 15 2 8 -13 10 -12 10 3 0 9 -4 17 -10 17 -5 0 -10
7 -10 15 0 8 -4 15 -9 15 -5 0 -11 7 -14 14 -4 11 -1 13 10 9 12 -5 14 -3 8 8
-7 12 -6 12 7 1 12 -9 18 -10 23 -2z"/>
<path d="M2070 2494 c0 -8 5 -12 10 -9 6 4 8 11 5 16 -9 14 -15 11 -15 -7z"/>
<path d="M614 2440 c0 -22 4 -24 25 -11 15 10 7 31 -12 31 -7 0 -13 -9 -13
-20z"/>
<path d="M380 2175 c0 -8 2 -15 4 -15 2 0 6 7 10 15 3 8 1 15 -4 15 -6 0 -10
-7 -10 -15z"/>
<path d="M1315 2019 c-36 -20 -53 -25 -63 -17 -9 8 -11 7 -6 -6 3 -9 10 -16
16 -16 5 0 6 -5 2 -11 -9 -15 123 -4 143 12 11 10 16 10 22 1 5 -9 18 -7 48 8
23 11 45 25 48 31 4 6 -8 3 -26 -5 -32 -15 -32 -15 -11 0 27 20 30 39 4 25
-13 -7 -22 -7 -30 1 -8 8 -18 8 -34 1 -13 -6 -32 -7 -43 -3 -13 5 -36 -2 -70
-21z"/>
<path d="M1205 2020 c-3 -5 -3 -15 1 -22 4 -6 3 -9 -2 -5 -5 3 -18 -2 -29 -10
-19 -15 -18 -15 10 -8 36 8 35 7 40 34 4 22 -9 29 -20 11z"/>
<path d="M2130 2021 c0 -6 5 -11 12 -11 7 0 22 -12 34 -27 22 -27 23 -27 21
-5 -1 12 -5 22 -10 22 -4 0 -6 4 -3 8 3 5 0 9 -7 9 -7 0 -20 4 -29 8 -11 4
-18 3 -18 -4z"/>
<path d="M1355 1940 c-4 -6 13 -10 46 -10 29 0 50 3 47 6 -12 11 -86 15 -93 4z"/>
<path d="M2059 1933 c-1 -5 -1 -12 1 -18 1 -5 -4 -4 -11 3 -16 15 -30 15 -66
0 -15 -6 -32 -10 -38 -9 -5 2 -7 -1 -3 -5 4 -4 0 -13 -10 -21 -15 -13 -15 -13
4 -4 18 9 23 6 32 -14 10 -21 19 -25 55 -25 54 0 83 26 73 65 -8 30 3 32 69 9
62 -20 92 -15 43 9 -36 17 -147 24 -149 10z"/>
<path d="M450 1910 c0 -5 7 -7 15 -4 8 4 15 8 15 10 0 2 -7 4 -15 4 -8 0 -15
-4 -15 -10z"/>
<path d="M1200 1870 c-8 -5 -12 -12 -9 -15 4 -3 12 1 19 10 14 17 11 19 -10 5z"/>
<path d="M1365 1843 c-42 -9 -75 -26 -69 -35 4 -5 15 -8 25 -5 22 6 26 -11 4
-19 -19 -8 -10 -23 21 -35 38 -14 94 13 94 45 0 14 -5 28 -10 31 -6 4 -8 11
-5 16 6 9 -23 10 -60 2z m43 -28 c-3 -3 -9 2 -12 12 -6 14 -5 15 5 6 7 -7 10
-15 7 -18z"/>
<path d="M1490 1840 c-7 -5 6 -14 36 -24 50 -17 73 -13 39 7 -31 19 -61 25
-75 17z"/>
<path d="M2100 1790 c-9 -6 -10 -10 -3 -10 6 0 15 5 18 10 8 12 4 12 -15 0z"/>
<path d="M530 1645 c-7 -8 -9 -15 -6 -15 4 0 14 7 22 15 9 8 11 15 6 15 -5 0
-15 -7 -22 -15z"/>
<path d="M2055 1570 c-16 -17 -16 -20 -2 -26 40 -15 74 16 39 35 -15 8 -23 6
-37 -9z"/>
<path d="M699 1543 c-12 -15 -12 -16 1 -8 13 8 13 7 1 -9 -17 -21 -3 -40 23
-30 11 4 16 15 14 32 -4 32 -21 38 -39 15z"/>
<path d="M1844 1536 c-27 -12 -54 -36 -41 -36 13 0 77 31 82 40 8 13 -3 12
-41 -4z"/>
<path d="M566 1491 c-5 -8 -2 -20 8 -29 17 -17 19 -9 7 22 -6 15 -10 16 -15 7z"/>
<path d="M2067 1476 c-12 -9 -14 -16 -7 -21 6 -4 2 -14 -12 -27 -21 -18 -21
-19 -3 -13 42 15 65 17 94 7 16 -6 39 -8 50 -5 19 5 19 6 3 22 -17 18 -83 51
-99 51 -4 0 -16 -7 -26 -14z"/>
<path d="M1885 1432 c-3 -3 -15 -7 -26 -9 -11 -2 -31 -9 -44 -16 -22 -11 -21
-12 23 -14 26 -1 53 4 61 10 12 9 13 9 7 0 -4 -7 -3 -13 2 -13 8 0 22 22 22
35 0 6 -39 13 -45 7z"/>
<path d="M686 1408 c3 -4 9 -8 15 -8 5 0 9 4 9 8 0 5 -7 9 -15 9 -8 0 -12 -4
-9 -9z"/>
<path d="M2219 1403 c-9 -9 -7 -14 5 -19 10 -4 15 -13 12 -20 -3 -9 2 -14 14
-14 13 0 18 -5 14 -15 -10 -26 10 -16 23 11 10 22 10 30 -2 47 -17 24 -51 29
-66 10z"/>
<path d="M748 1393 c7 -3 16 -2 19 1 4 3 -2 6 -13 5 -11 0 -14 -3 -6 -6z"/>
<path d="M2090 1310 c-12 -8 -9 -10 13 -10 16 0 26 4 22 10 -8 12 -16 12 -35
0z"/>
<path d="M861 1276 c-1 -19 7 -37 24 -52 22 -20 38 -20 18 0 -8 7 -9 11 -12
37 0 5 -5 8 -10 4 -5 -3 -12 5 -14 17 -4 19 -5 18 -6 -6z"/>
<path d="M2040 1290 c-9 -6 -10 -10 -3 -10 6 0 15 5 18 10 8 12 4 12 -15 0z"/>
<path d="M2057 1165 c-8 -7 -27 -17 -41 -21 -15 -3 -25 -9 -22 -12 8 -7 96 28
96 39 0 14 -17 11 -33 -6z"/>
<path d="M920 1161 c0 -6 4 -13 10 -16 6 -3 7 1 4 9 -7 18 -14 21 -14 7z"/>
<path d="M1021 1032 c8 -12 17 -22 21 -22 3 0 34 -19 69 -41 41 -27 57 -44 49
-49 -7 -5 -1 -7 15 -7 15 0 30 -5 34 -10 3 -5 40 -26 81 -47 78 -38 98 -49
142 -78 14 -10 32 -19 39 -20 8 -2 27 -15 44 -30 16 -16 37 -28 46 -28 8 0 20
-5 27 -12 9 -9 12 -9 12 0 0 6 7 9 15 6 8 -4 15 -2 15 4 0 6 13 7 36 2 25 -6
49 -4 76 6 36 12 39 12 28 -1 -15 -18 -10 -18 25 -5 18 7 25 15 21 25 -4 12 3
15 30 15 25 0 33 3 28 13 -6 9 -4 9 8 -1 21 -17 35 3 18 23 -10 12 -10 18 0
30 15 18 36 19 44 3 5 -10 7 -10 12 0 3 7 38 29 76 48 69 35 71 35 64 12 -21
-67 -25 -62 73 -98 87 -31 111 -34 97 -12 -3 6 -15 8 -26 5 -14 -4 -20 -1 -18
8 2 9 -5 13 -19 12 -16 -2 -21 2 -17 12 4 11 2 13 -9 10 -9 -4 -16 1 -19 13
-4 15 -1 18 13 15 11 -3 19 0 19 6 0 7 5 9 10 6 6 -3 10 -3 10 0 0 10 -54 54
-67 55 -6 0 -9 9 -6 20 3 11 8 18 12 16 3 -2 24 14 46 36 35 36 37 39 15 33
-14 -4 -42 -7 -62 -6 -24 1 -40 -4 -46 -14 -5 -10 -15 -13 -25 -9 -9 3 -15 10
-12 14 3 5 1 11 -4 14 -5 3 -17 -6 -26 -20 -9 -15 -13 -24 -8 -21 5 3 9 -2 9
-11 0 -12 -8 -17 -26 -16 -15 0 -31 3 -36 6 -12 8 -48 -18 -41 -29 3 -5 -2
-10 -11 -10 -9 -1 -32 -4 -49 -6 -18 -3 -33 0 -33 4 0 5 6 9 14 9 8 0 17 4 21
10 3 5 -7 5 -25 -1 -16 -6 -28 -14 -26 -18 3 -4 -3 -7 -12 -7 -25 -2 -70 -12
-82 -19 -6 -4 -7 1 -3 11 4 12 3 15 -5 10 -6 -4 -43 -9 -81 -12 -61 -5 -70 -3
-74 13 -4 16 -5 16 -6 1 0 -10 -6 -18 -12 -18 -5 0 -7 4 -4 10 3 6 -9 9 -32 7
-27 -1 -37 2 -35 11 1 8 -1 11 -6 8 -5 -3 -41 3 -81 14 -40 10 -80 16 -89 13
-10 -4 -13 -2 -8 5 5 9 -3 10 -29 6 -27 -4 -35 -2 -30 6 6 9 2 9 -12 1 -14 -7
-24 -7 -33 2 -10 10 -11 9 -5 -3 6 -12 5 -13 -6 -2 -7 6 -20 12 -28 12 -8 0
-22 6 -30 14 -9 7 -38 26 -65 41 -44 26 -47 26 -35 7z m1133 -57 c-4 -8 -8
-15 -10 -15 -2 0 -4 7 -4 15 0 8 4 15 10 15 5 0 7 -7 4 -15z m-874 -39 c0 -2
-7 -7 -16 -10 -8 -3 -12 -2 -9 4 6 10 25 14 25 6z m683 -11 c-3 -9 -8 -14 -10
-11 -3 3 -2 9 2 15 9 16 15 13 8 -4z m227 -69 c0 -3 -4 -8 -10 -11 -5 -3 -10
-1 -10 4 0 6 5 11 10 11 6 0 10 -2 10 -4z"/>
<path d="M2200 1040 c-9 -6 -10 -10 -3 -10 6 0 15 5 18 10 8 12 4 12 -15 0z"/>
<path d="M1036 912 c-3 -5 1 -15 8 -21 11 -10 14 -9 12 3 -3 21 -13 29 -20 18z"/>
<path d="M1083 875 c0 -7 7 -11 15 -7 10 3 13 1 8 -6 -8 -14 39 -46 54 -37 16
10 -20 34 -39 27 -9 -3 -12 -1 -7 6 3 6 -2 15 -12 21 -14 7 -19 6 -19 -4z"/>
<path d="M2210 820 c-9 -6 -10 -10 -3 -10 6 0 15 5 18 10 8 12 4 12 -15 0z"/>
<path d="M2405 820 c-19 -7 -19 -8 5 -17 14 -6 40 -13 59 -17 29 -5 32 -4 21
9 -10 12 -10 15 1 16 21 1 -23 18 -46 18 -11 0 -29 -4 -40 -9z m55 -10 c0 -5
-8 -10 -17 -10 -15 0 -16 2 -3 10 19 12 20 12 20 0z"/>
<path d="M1160 814 c0 -13 45 -41 58 -37 10 4 9 10 -4 24 -16 18 -54 27 -54
13z"/>
<path d="M1257 809 c7 -7 15 -10 18 -7 3 3 -2 9 -12 12 -14 6 -15 5 -6 -5z"/>
<path d="M2266 801 c-4 -5 3 -7 14 -4 23 6 26 13 6 13 -8 0 -17 -4 -20 -9z"/>
<path d="M821 771 c-24 -9 -46 -23 -48 -31 -3 -9 -1 -11 4 -4 18 24 43 23 75
-4 126 -104 168 -143 168 -157 0 -6 9 -20 20 -30 11 -10 17 -22 14 -27 -12
-19 71 -113 89 -101 6 3 7 2 4 -4 -4 -6 5 -21 18 -33 14 -13 25 -32 25 -42 0
-10 4 -18 9 -18 4 0 26 -12 47 -27 46 -31 181 -103 195 -103 5 0 9 7 9 15 0 8
-4 15 -10 15 -5 0 -10 -5 -10 -11 0 -5 -5 -7 -10 -4 -7 4 -6 14 2 28 7 12 11
26 10 30 -1 5 2 6 6 3 5 -3 19 2 30 12 15 13 18 22 11 33 -8 12 -12 11 -27 -7
-37 -44 -54 -45 -88 -8 -18 19 -37 34 -43 34 -10 0 -15 14 -12 33 1 5 -2 6 -6
4 -15 -9 -44 21 -47 49 -2 15 -9 32 -17 38 -19 15 -20 56 -2 56 10 0 7 10 -11
33 -14 19 -23 37 -18 42 14 16 -23 -8 -66 -42 -35 -28 -45 -33 -57 -23 -8 7
-12 16 -9 21 3 5 1 9 -3 9 -5 0 -18 6 -28 14 -19 14 -19 15 -1 35 11 12 14 21
7 21 -6 0 -31 18 -54 40 -23 22 -49 39 -58 38 -25 -4 -91 66 -76 81 13 13 14
13 -42 -8z m397 -253 c-22 -13 -31 -9 -17 9 13 15 12 15 -8 5 -16 -9 -22 -9
-26 2 -11 27 14 35 39 13 18 -15 21 -23 12 -29z m-68 -2 c0 -2 -7 -7 -16 -10
-8 -3 -12 -2 -9 4 6 10 25 14 25 6z m58 -161 c-3 -3 -9 2 -12 12 -6 14 -5 15
5 6 7 -7 10 -15 7 -18z"/>
<path d="M1253 769 c9 -6 15 -14 12 -19 -3 -5 22 -30 57 -55 45 -33 64 -42 70
-32 7 11 9 10 12 -12 0 -5 5 -13 10 -18 5 -5 6 -3 2 5 -8 14 3 16 23 3 10 -6
10 -10 1 -16 -7 -5 1 -15 24 -32 20 -13 41 -21 48 -17 6 4 8 3 5 -3 -9 -15 38
-44 60 -37 12 4 14 3 6 -3 -14 -10 -8 -16 70 -71 34 -24 51 -31 63 -24 14 8 9
15 -30 41 -25 18 -51 29 -56 26 -6 -4 -9 -2 -8 5 2 6 -28 33 -67 60 -158 112
-304 210 -312 210 -4 0 0 -5 10 -11z m227 -159 c8 -5 12 -11 10 -14 -3 -2 -14
2 -24 10 -22 15 -10 19 14 4z"/>
<path d="M2323 759 c-35 -22 -43 -39 -19 -39 20 0 60 34 55 48 -3 7 -15 4 -36
-9z"/>
<path d="M2066 763 c-12 -12 -6 -33 10 -33 8 0 36 -9 61 -21 36 -16 51 -18 67
-10 18 9 17 10 -9 5 -19 -4 -25 -2 -17 3 9 7 5 13 -15 23 -66 30 -91 39 -97
33z"/>
<path d="M1955 740 c3 -5 8 -10 11 -10 2 0 4 5 4 10 0 6 -5 10 -11 10 -5 0 -7
-4 -4 -10z"/>
<path d="M2363 728 c-13 -6 -23 -15 -23 -19 0 -5 10 -14 23 -20 12 -6 19 -8
15 -4 -4 5 -3 14 3 22 6 7 8 13 3 13 -5 0 -2 5 6 10 20 13 1 11 -27 -2z"/>
<path d="M2046 703 c-3 -10 -10 -48 -17 -85 -10 -65 -10 -70 14 -110 14 -24
30 -63 37 -87 13 -49 30 -70 60 -76 11 -2 25 -7 30 -10 6 -3 10 -2 10 4 0 5
-5 11 -12 13 -7 3 -5 7 6 11 9 4 15 3 12 -2 -3 -5 1 -11 8 -14 9 -4 17 1 19
11 3 10 5 6 6 -10 1 -23 5 -26 29 -24 23 3 27 8 29 40 1 20 -3 36 -9 36 -6 0
-6 6 3 16 10 13 10 17 -2 25 -8 5 -21 9 -29 10 -8 0 -4 4 10 8 14 4 26 16 28
26 3 17 1 17 -7 5 -7 -10 -11 -11 -11 -3 0 7 8 17 19 22 29 16 33 39 11 58
-26 23 -26 37 1 22 12 -6 19 -7 15 -1 -3 6 -19 15 -35 20 -23 8 -31 7 -35 -4
-3 -8 -10 -14 -16 -14 -8 0 -8 6 0 20 10 19 4 25 -22 21 -5 0 -8 3 -8 7 0 5
-22 21 -50 36 -27 15 -52 31 -55 36 -10 16 -33 11 -39 -7z m211 -355 c-3 -8
-6 -5 -6 6 -1 11 2 17 5 13 3 -3 4 -12 1 -19z"/>
<path d="M2458 713 c7 -3 16 -2 19 1 4 3 -2 6 -13 5 -11 0 -14 -3 -6 -6z"/>
<path d="M1975 700 c4 -6 11 -8 16 -5 14 9 11 15 -7 15 -8 0 -12 -5 -9 -10z"/>
<path d="M2242 681 c-11 -7 -10 -9 3 -14 9 -4 14 -3 10 2 -3 5 1 12 7 14 7 3
9 6 3 6 -5 0 -16 -3 -23 -8z"/>
<path d="M2400 676 c0 -2 7 -7 16 -10 8 -3 12 -2 9 4 -6 10 -25 14 -25 6z"/>
<path d="M765 640 c-4 -6 3 -10 14 -10 25 0 27 6 6 13 -8 4 -17 2 -20 -3z"/>
<path d="M1335 640 c3 -5 8 -10 11 -10 2 0 4 5 4 10 0 6 -5 10 -11 10 -5 0 -7
-4 -4 -10z"/>
<path d="M845 611 c-4 -7 1 -8 11 -4 11 4 15 2 11 -4 -4 -7 8 -12 34 -15 49
-5 62 8 17 17 -18 4 -40 9 -50 11 -9 3 -19 0 -23 -5z"/>
<path d="M1390 603 c0 -4 14 -16 30 -25 39 -22 39 -15 0 12 -16 12 -30 18 -30
13z"/>
<path d="M2347 569 c7 -7 15 -10 18 -7 3 3 -2 9 -12 12 -14 6 -15 5 -6 -5z"/>
<path d="M1317 563 c-10 -9 -9 -23 1 -23 5 0 9 7 9 15 0 17 -1 18 -10 8z"/>
<path d="M2331 532 c8 -12 20 -20 27 -17 8 3 23 5 35 5 17 0 19 2 7 10 -8 5
-21 5 -30 0 -10 -6 -21 -3 -34 8 -18 16 -18 16 -5 -6z"/>
<path d="M730 520 c-8 -15 -8 -20 -1 -16 15 10 14 -7 -1 -23 -11 -11 -9 -11 9
-2 12 6 37 11 55 10 31 0 32 -1 11 -11 -32 -15 -29 -32 3 -24 24 6 25 6 10 -9
-9 -9 -16 -19 -16 -22 0 -4 3 -3 7 0 8 9 34 -13 28 -23 -3 -5 0 -12 6 -16 7
-4 9 -3 6 3 -3 5 6 19 21 30 25 18 31 41 23 82 -1 2 -9 -3 -19 -12 -10 -10
-22 -14 -25 -11 -4 4 1 13 10 19 15 11 15 13 -5 24 -12 6 -41 14 -66 17 -39 6
-45 4 -56 -16z"/>
<path d="M1366 513 c-6 -14 -5 -15 5 -6 7 7 10 15 7 18 -3 3 -9 -2 -12 -12z"/>
<path d="M660 488 c0 -4 4 -8 9 -8 6 0 12 4 15 8 3 5 -1 9 -9 9 -8 0 -15 -4
-15 -9z"/>
<path d="M2365 490 c-3 -5 -1 -10 4 -10 6 0 11 5 11 10 0 6 -2 10 -4 10 -3 0
-8 -4 -11 -10z"/>
<path d="M2331 474 c0 -11 3 -14 6 -6 3 7 2 16 -1 19 -3 4 -6 -2 -5 -13z"/>
<path d="M2364 452 c4 -7 3 -12 -1 -12 -5 0 -18 -7 -29 -15 -18 -14 -18 -14 3
-8 30 7 48 29 32 39 -8 4 -9 3 -5 -4z"/>
<path d="M1722 432 c-9 -6 2 -19 35 -43 61 -45 77 -54 69 -41 -3 6 -1 12 5 14
7 2 -11 21 -38 41 -56 41 -53 40 -71 29z"/>
<path d="M1611 417 c-6 -8 -7 -18 -3 -22 4 -5 -2 -5 -13 -1 -15 5 -17 4 -8 -4
8 -9 16 -9 30 -1 10 6 13 11 5 11 -7 0 -10 5 -7 10 4 6 16 8 27 4 14 -4 18 -2
14 5 -10 15 -31 14 -45 -2z"/>
<path d="M1534 363 c-17 -16 -22 -22 -13 -15 10 8 24 11 31 6 7 -4 10 -4 6 1
-4 4 -3 14 3 22 19 22 5 15 -27 -14z"/>
<path d="M1865 340 c17 -20 18 -23 3 -17 -25 9 -22 0 3 -14 17 -9 20 -8 14 2
-6 9 -3 11 8 6 25 -9 21 -4 -15 23 l-33 23 20 -23z"/>
<path d="M1130 346 c0 -2 8 -10 18 -17 15 -13 16 -12 3 4 -13 16 -21 21 -21
13z"/>
<path d="M2070 338 c0 -6 -3 -8 -6 -5 -4 4 -20 -3 -35 -14 -16 -11 -33 -17
-39 -14 -5 3 -7 0 -4 -8 3 -9 -3 -16 -15 -20 -12 -3 -19 -2 -17 2 3 4 -4 13
-16 20 -11 7 -17 8 -13 2 3 -6 0 -11 -7 -11 -9 -1 -7 -5 5 -14 9 -7 17 -21 17
-30 0 -9 8 -16 20 -16 11 0 20 6 20 13 0 9 2 9 9 -1 6 -11 11 -10 24 3 9 9 32
18 51 20 19 3 46 16 60 29 23 24 23 26 5 31 -10 4 -19 11 -19 16 0 5 -9 9 -20
9 -11 0 -20 -5 -20 -12z"/>
<path d="M1410 320 c0 -5 5 -10 10 -10 6 0 10 5 10 10 0 6 -4 10 -10 10 -5 0
-10 -4 -10 -10z"/>
<path d="M1240 250 c35 -24 54 -31 30 -11 -14 11 -29 21 -35 21 -5 0 -3 -5 5
-10z"/>
<path d="M1480 249 c0 -5 5 -7 10 -4 6 3 10 8 10 11 0 2 -4 4 -10 4 -5 0 -10
-5 -10 -11z"/>
</g>
</svg>
